# AST/ASF file generated using VICON BodyLanguage
# -----------------------------------------------
:version 1.10
:name VICON
:units
  mass 1.0
  length 0.45
  angle deg
:documentation
   .ast/.asf automatically generated from VICON data using
   VICON BodyBuilder and BodyLanguage model FoxedUp or BRILLIANT.MOD
:root
   order TX TY TZ RX RY RZ
   axis XYZ
   position 0 0 0  
   orientation 0 0 0 
:bonedata
  begin
     id 1 
     name lhipjoint
     direction 0.576517 -0.752066 0.319413 
     length 2.45433 
     axis 0 0 0  XYZ
  end
  begin
     id 2 
     name lfemur
     direction 0.34202 -0.939693 0  
     length 7.54459  
     axis 0 0 20  XYZ
    dof rx ry rz
    limits (-160.0 20.0)
           (-70.0 70.0)
           (-60.0 70.0)
  end
  begin
     id 3 
     name ltibia
     direction 0.34202 -0.939693 0   
     length 7.73986   
     axis 0 0 20   XYZ
    dof rx
    limits (-10.0 170.0)
  end
  begin
     id 4 
     name lfoot
     direction 0.090693 -0.249177 0.964202   
     length 2.28437   
     axis -90 7.62852e-016 20   XYZ
    dof rx rz
    limits (-45.0 90.0)
           (-70.0 20.0)
  end
  begin
     id 5 
     name ltoes
     direction 1.5356e-011 -4.21928e-011 1   
     length 1.14243   
     axis -90 7.62852e-016 20   XYZ
    dof rx
    limits (-90.0 20.0)
  end
  begin
     id 6 
     name rhipjoint
     direction -0.573937 -0.753736 0.320122   
     length 2.44889  
     axis 0 0 0  XYZ 
  end
  begin
     id 7 
     name rfemur
     direction -0.34202 -0.939693 0   
     length 7.50166   
     axis 0 0 -20   XYZ
    dof rx ry rz
    limits (-160.0 20.0)
           (-70.0 70.0)
           (-70.0 60.0)
  end
  begin
     id 8 
     name rtibia
     direction -0.34202 -0.939693 0   
     length 7.54266   
     axis 0 0 -20   XYZ
    dof rx
    limits (-10.0 170.0)
 end
 begin
     id 9 
     name rfoot
     direction -0.114017 -0.31326 0.942798   
     length 2.34212  
     axis -90 -7.62852e-016 -20   XYZ
    dof rx rz
    limits (-45.0 90.0)
           (-20.0 70.0)
  end
  begin
     id 10 
     name rtoes
     direction -1.53557e-011 -4.21867e-011 1   
     length 1.16246   
     axis -90 -7.62852e-016 -20   XYZ
    dof rx
    limits (-90.0 20.0)
  end
  begin
     id 11 
     name lowerback
     direction -0.0228371 0.999155 -0.034167   
     length 2.0537   
     axis 0 0 0   XYZ
    dof rx ry rz
    limits (-20.0 45.0)
           (-30.0 30.0)
           (-30.0 30.0)
  end
  begin
     id 12 
     name upperback
     direction 0.0198981 0.999794 0.00389455   
     length 2.05302   
     axis 0 0 0   XYZ
    dof rx ry rz
    limits (-20.0 45.0)
           (-30.0 30.0)
           (-30.0 30.0)
  end
  begin
     id 13 
     name thorax
     direction 0.0304566 0.99935 0.0192987   
     length 2.05315   
     axis 0 0 0   XYZ
    dof rx ry rz
    limits (-20.0 45.0)
           (-30.0 30.0)
           (-30.0 30.0)
  end
  begin
     id 14 
     name lowerneck
     direction -0.0196762 0.99417 0.106017   
     length 1.82056   
     axis 0 0 0   XYZ
    dof rx ry rz
    limits (-20.0 45.0)
           (-30.0 30.0)
           (-30.0 30.0)
  end
  begin
     id 15 
     name upperneck
     direction 0.00517787 0.9802 -0.197944   
     length 1.83835   
     axis 0 0 0   XYZ
    dof rx ry rz
    limits (-20.0 45.0)
           (-30.0 30.0)
           (-30.0 30.0)
  end
  begin
     id 16
     name head
     direction 0.00211419 0.996945 -0.078081  
     length 1.85629  
     axis 0 0 0   XYZ
    dof rx ry rz
    limits (-20.0 45.0)
           (-30.0 30.0)
           (-30.0 30.0)
  end
  begin
     id 17 
     name lclavicle
     direction 0.930001 0.365811 -0.0357824  
     length 3.81961  
     axis 0 0 0   XYZ
    dof ry rz
    limits (-20.0 10.0)
           (0.0 20.0)
  end
  begin
     id 18 
     name lhumerus
     direction 1 -4.48968e-011 -3.06644e-027   
     length 5.14507   
     axis 180 -30 -90   XYZ
    dof rx ry rz
    limits (-60.0 90.0)
           (-90.0 90.0)
           (-90.0 90.0)
  end
  begin
     id 19
     name lradius
     direction 1 -4.48965e-011 9.06925e-028   
     length 3.50646   
     axis 180 -30 -90   XYZ
    dof rx
    limits (-10.0 170.0)
  end
  begin
     id 20
     name lwrist
     direction 1 -4.48957e-011 1.03922e-027   
     length 1.75323   
     axis -2.56395e-016 90 90   XYZ
    dof ry
    limits (-180.0 0.0)
 end
  begin
     id 21 
     name lhand
     direction 1 -4.48967e-011 2.08017e-027   
     length 0.629969   
     axis -1.32723e-015 90 90   XYZ
    dof rx rz
    limits (-90.0 90.0)
           (-45.0 45.0)
  end
  begin
     id 22 
     name lfingers
     direction 1 -4.49089e-011 4.20095e-027   
     length 0.507897   
     axis -2.6545e-015 90 90   XYZ
    dof rx
    limits (0.0 90.0)
  end
  begin
     id 23
     name lthumb
     direction 0.707107 -6.35001e-011 0.707107   
     length 0.729241   
     axis -90 45 5.05613e-014   XYZ
    dof rx rz
    limits (-45.0 45.0)
           (-45.0 45.0)
  end
  begin
     id 24 
     name rclavicle
     direction -0.881882 0.464123 -0.0829113   
     length 3.47515  
     axis 0 0 0   XYZ 
    dof ry rz
    limits (-10.0 20.0)
           (-20.0 0.0)
  end
  begin
     id 25 
     name rhumerus
     direction -1 -4.48961e-011 -1.55672e-027  
     length 5.232   
     axis 180 30 90   XYZ
    dof rx ry rz
    limits (-90.0 60.0)
           (-90.0 90.0)
           (-90.0 90.0)
  end
  begin
     id 26 
     name rradius
     direction -1 -4.48963e-011 6.18178e-029   
     length 3.65641   
     axis 180 30 90   XYZ
    dof rx
    limits (-10.0 170.0)
  end
  begin
     id 27 
     name rwrist
     direction -1 -4.48982e-011 1.04136e-027   
     length 1.8282   
     axis -2.56395e-016 -90 -90   XYZ
    dof ry
    limits (-180.0 0.0)
  end
  begin
     id 28
     name rhand
     direction -1 -4.48929e-011 2.07378e-027   
     length 0.656807   
     axis -1.32723e-015 -90 -90   XYZ
    dof rx rz
    limits (-90.0 90.0)
           (-45.0 45.0)
  end
  begin
     id 29
     name rfingers
     direction -1 -4.489e-011 4.13816e-027   
     length 0.529535   
     axis -2.6545e-015 -90 -90   XYZ
    dof rx
    limits (0.0 90.0)
  end
  begin
     id 30
     name rthumb
     direction -0.707107 -6.34843e-011 0.707107   
     length 0.760309   
     axis -90 -45 -5.05613e-014   XYZ
    dof rx rz
    limits (-45.0 45.0)
           (-45.0 45.0)
  end
:hierarchy
  begin
    root lhipjoint rhipjoint lowerback
    lhipjoint lfemur
    lfemur ltibia
    ltibia lfoot
    lfoot ltoes
    rhipjoint rfemur
    rfemur rtibia
    rtibia rfoot
    rfoot rtoes
    lowerback upperback
    upperback thorax
    thorax lowerneck lclavicle rclavicle
    lowerneck upperneck
    upperneck head
    lclavicle lhumerus
    lhumerus lradius
    lradius lwrist
    lwrist lhand lthumb
    lhand lfingers
    rclavicle rhumerus
    rhumerus rradius
    rradius rwrist
    rwrist rhand rthumb
    rhand rfingers
  end

#!OML:ASF H:\ManfredETheater\Project 1\Capture day 1\Session 1\subject.ASF
:FULLY-SPECIFIED
:DEGREES
1
root -0.400717 15.6767 41.7722 -156.737 -0.725934 -174.831
lowerback 16.5861 0.0901718 8.15754
upperback 0.0210247 2.33787 3.03157
thorax -9.1574 0.972162 -1.91209
lowerneck -16.696 -1.82301 -1.09414
upperneck -3.54266 -3.03452 0.526715
head 1.72702 -1.83283 0.150973
rclavicle 1.66979e-014 7.63333e-014
rhumerus -27.2569 11.9958 -84.5686
rradius 104.247
rwrist -1.39461
rhand -28.6754 4.95819
rfingers 7.12502
rthumb -2.03817 -25.0118
lclavicle 1.66979e-014 7.63333e-014
lhumerus -80.0282 -12.2665 95.9174
lradius 93.1655
lwrist 14.559
lhand -23.92 -12.5722
lfingers 7.12502
lthumb 2.55461 17.3923
rfemur 4.89933 4.34816 26.9786
rtibia 32.2737
rfoot 27.4716 -1.07058
rtoes -20.9912
lfemur -76.0257 6.48465 -20.3858
ltibia 69.5791
lfoot -14.1276 -12.5063
ltoes -35.9609
2
root -0.381625 15.6786 41.2758 -156.561 -0.470446 -174.663
lowerback 16.3511 0.161984 7.7965
upperback -0.0254807 2.34376 3.12402
thorax -9.0909 0.99308 -1.60605
lowerneck -16.7026 -1.68 -1.0138
upperneck -3.68451 -2.87997 0.635685
head 1.67979 -1.76106 0.183093
rclavicle 2.50469e-014 3.10104e-014
rhumerus -29.0575 11.801 -86.0094
rradius 101.06
rwrist -1.31654
rhand -28.2272 4.4805
rfingers 7.12502
rthumb -1.60536 -25.4932
lclavicle 2.50469e-014 3.10104e-014
lhumerus -76.7759 -12.112 96.8633
lradius 93.281
lwrist 15.3402
lhand -24.0802 -12.6185
lfingers 7.12502
lthumb 2.39991 17.3478
rfemur 1.73164 3.14047 26.7753
rtibia 38.9128
rfoot 21.5332 -2.00989
rtoes -37.1621
lfemur -74.5804 7.03748 -20.5699
ltibia 69.2689
lfoot -13.4799 -12.5698
ltoes -28.6222
3
root -0.367428 15.719 40.7463 -156.861 -0.560207 -174.813
lowerback 16.3999 0.0124258 7.44011
upperback -0.00805144 2.08119 3.16436
thorax -9.13211 0.882023 -1.3022
lowerneck -16.6139 -1.50891 -0.766804
upperneck -3.76397 -2.70399 0.582429
head 1.63178 -1.6801 0.136606
rclavicle -7.95139e-016 3.10104e-014
rhumerus -30.8902 11.2371 -87.4026
rradius 97.469
rwrist -1.1215
rhand -27.6078 4.13548
rfingers 7.12502
rthumb -1.00711 -25.8419
lclavicle -7.95139e-016 3.10104e-014
lhumerus -73.421 -12.1339 97.8616
lradius 93.3268
lwrist 15.7746
lhand -24.0238 -12.1697
lfingers 7.12502
lthumb 2.45438 17.7959
rfemur -1.21355 1.73651 26.4085
rtibia 45.5187
rfoot 18.8771 -1.74079
rtoes -37.931
lfemur -72.0554 7.16511 -20.9025
ltibia 68.937
lfoot -13.7659 -12.3089
ltoes -16.0862
4
root -0.355862 15.7308 40.2201 -157.325 -0.639701 -175.06
lowerback 16.612 -0.128499 7.07843
upperback 0.0674439 1.83505 3.13684
thorax -9.19425 0.777843 -1.07424
lowerneck -16.6638 -2.37275 -0.207232
upperneck -3.81463 -2.31532 0.612739
head 1.61562 -0.783153 0.0946512
rclavicle -1.78906e-014 -5.08889e-014
rhumerus -32.5174 10.0845 -88.551
rradius 93.8442
rwrist -1.26416
rhand -27.0907 3.23125
rfingers 7.12502
rthumb -0.507653 -26.7479
lclavicle -1.78906e-014 -5.08889e-014
lhumerus -69.7358 -12.5473 98.8127
lradius 93.181
lwrist 15.8454
lhand -23.9463 -12.5906
lfingers 7.12502
lthumb 2.52918 17.3742
rfemur -3.98113 0.541393 26.0557
rtibia 51.5124
rfoot 16.7899 -2.81798
rtoes -30.3525
lfemur -68.919 7.23296 -21.2576
ltibia 68.692
lfoot -15.7821 -11.7303
ltoes -8.27825
5
root -0.361071 15.8006 39.6743 -157.905 -0.652375 -175.9
lowerback 16.8054 -0.42171 6.4771
upperback 0.106123 1.28493 2.8543
thorax -9.29729 0.518861 -0.910589
lowerneck -16.3714 -2.11469 0.100274
upperneck -3.81889 -2.0518 0.609756
head 1.55835 -0.66597 0.0594652
rclavicle -1.59028e-015 -8.74653e-015
rhumerus -33.9986 8.59153 -89.6291
rradius 89.3471
rwrist -1.16513
rhand -28.0116 3.15447
rfingers 7.12502
rthumb -1.39714 -26.8207
lclavicle -1.59028e-015 -8.74653e-015
lhumerus -65.6673 -13.0558 99.7389
lradius 92.4254
lwrist 13.9954
lhand -24.9553 -12.6676
lfingers 7.12502
lthumb 1.55477 17.3065
rfemur -7.57477 -0.891365 24.9335
rtibia 57.3308
rfoot 15.3909 -2.62984
rtoes -30.0733
lfemur -65.0256 6.65934 -21.7215
ltibia 68.3053
lfoot -19.2737 -11.49
ltoes -5.33452
6
root -0.357218 15.8129 39.1533 -158.341 -0.612073 -176.674
lowerback 17.0002 -0.613498 5.71757
upperback 0.124009 0.848448 2.63779
thorax -9.41501 0.325468 -0.6101
lowerneck -16.2648 -1.92218 0.318502
upperneck -3.82271 -1.84502 0.668064
head 1.53623 -0.567692 0.0540372
rclavicle 8.34896e-015 4.49253e-014
rhumerus -35.5193 7.05949 -90.4193
rradius 85.5182
rwrist -1.57326
rhand -27.9674 2.84708
rfingers 7.12502
rthumb -1.35439 -27.1284
lclavicle 8.34896e-015 4.49253e-014
lhumerus -61.8252 -13.6565 100.498
lradius 92.1007
lwrist 13.3394
lhand -25.2595 -12.7559
lfingers 7.12502
lthumb 1.26089 17.2201
rfemur -10.723 -2.14689 23.9357
rtibia 62.9809
rfoot 13.0545 -3.34787
rtoes -29.6364
lfemur -61.8002 6.32073 -22.4004
ltibia 67.8055
lfoot -21.3953 -10.8261
ltoes 0.116809
7
root -0.355201 15.8131 38.637 -158.811 -0.543984 -177.756
lowerback 17.2445 -0.519682 4.79809
upperback 0.124571 0.255205 2.32777
thorax -9.56026 -0.144332 -0.242836
lowerneck -16.1736 -1.7338 0.496101
upperneck -3.80892 -1.63757 0.790103
head 1.52412 -0.466771 0.0755938
rclavicle -6.75868e-015 3.49861e-014
rhumerus -37.0254 5.29504 -90.9371
rradius 81.7898
rwrist -2.18268
rhand -28.0452 2.6197
rfingers 7.12502
rthumb -1.42954 -27.3553
lclavicle -6.75868e-015 3.49861e-014
lhumerus -57.8901 -14.4018 101.12
lradius 91.7861
lwrist 12.6138
lhand -25.5635 -12.7881
lfingers 7.12502
lthumb 0.967353 17.1895
rfemur -14.0412 -3.45035 22.6043
rtibia 68.4428
rfoot 10.7255 -3.91004
rtoes -28.6906
lfemur -58.4522 5.77079 -23.3424
ltibia 67.157
lfoot -23.6414 -9.97244
ltoes 4.02227
8
root -0.354572 15.8042 38.1264 -159.268 -0.444672 -179.101
lowerback 17.5075 -0.772035 3.54633
upperback 0.13029 -0.319452 1.93633
thorax -9.71892 -0.356219 0.186422
lowerneck -16.1129 -1.56055 0.610601
upperneck -3.79419 -1.43752 0.996739
head 1.51906 -0.365017 0.134227
rclavicle 4.77083e-015 -3.89618e-014
rhumerus -38.564 3.37167 -91.1538
rradius 78.3022
rwrist -3.0114
rhand -28.2679 2.4245
rfingers 7.12502
rthumb -1.64465 -27.5489
lclavicle 4.77083e-015 -3.89618e-014
lhumerus -53.9001 -15.2649 101.571
lradius 91.5589
lwrist 11.9869
lhand -25.8223 -12.7495
lfingers 7.12502
lthumb 0.717394 17.229
rfemur -17.5788 -4.79066 20.9874
rtibia 73.681
rfoot 8.23962 -4.47215
rtoes -28.0298
lfemur -55.0832 5.02668 -24.515
ltibia 66.3852
lfoot -25.8626 -9.00894
ltoes 6.3375
9
root -0.355371 15.7864 37.6214 -159.68 -0.360072 -180.598
lowerback 17.7567 -1.02848 2.18398
upperback 0.116155 -0.940753 1.50442
thorax -9.87401 -0.586384 0.652348
lowerneck -16.0742 -1.40847 0.650585
upperneck -3.79555 -1.24937 1.27762
head 1.51355 -0.264423 0.228509
rclavicle 7.7526e-015 -1.98785e-014
rhumerus -40.1975 1.38851 -91.0425
rradius 75.1597
rwrist -3.97662
rhand -28.6204 2.29963
rfingers 7.12502
rthumb -1.98512 -27.6709
lclavicle 7.7526e-015 -1.98785e-014
lhumerus -49.9168 -16.1896 101.847
lradius 91.4933
lwrist 11.5512
lhand -26.0059 -12.6421
lfingers 7.12502
lthumb 0.540016 17.3369
rfemur -21.3593 -6.1773 19.2279
rtibia 78.6313
rfoot 5.61266 -5.01623
rtoes -27.8236
lfemur -51.7998 4.1021 -25.8094
ltibia 65.5435
lfoot -27.9206 -8.04071
ltoes 7.58214
10
root -0.357487 15.7588 37.122 -160.029 -0.312292 -182.116
lowerback 17.9685 -1.28123 0.839599
upperback 0.0857133 -1.5729 1.07417
thorax -10.0069 -0.824333 1.11705
lowerneck -16.0713 -1.28265 0.623906
upperneck -3.82428 -1.07865 1.5991
head 1.50568 -0.168041 0.346115
rclavicle -5.76476e-015 -5.96354e-015
rhumerus -41.9615 -0.566769 -90.5952
rradius 72.4656
rwrist -4.99023
rhand -29.0751 2.18358
rfingers 7.12502
rthumb -2.42426 -27.7824
lclavicle -5.76476e-015 -5.96354e-015
lhumerus -45.9915 -17.1323 101.956
lradius 91.6675
lwrist 11.3473
lhand -26.0912 -12.4839
lfingers 7.12502
lthumb 0.457671 17.4954
rfemur -25.3896 -7.57189 17.5028
rtibia 83.2025
rfoot 2.91029 -5.57408
rtoes -27.6729
lfemur -48.6566 3.05414 -27.1053
ltibia 64.6738
lfoot -29.7624 -7.10449
ltoes 7.97362
11
root -0.360681 15.7228 36.6253 -160.302 -0.325647 -183.539
lowerback 18.1034 -1.53529 -0.373971
upperback 0.040842 -2.1923 0.688645
thorax -10.0966 -1.06374 1.55359
lowerneck -16.0827 -1.1778 0.549091
upperneck -3.89402 -0.920743 1.90568
head 1.48648 -0.0759421 0.466508
rclavicle -3.79679e-014 1.35174e-014
rhumerus -43.8844 -2.38788 -89.8285
rradius 70.2765
rwrist -5.9406
rhand -29.5823 1.99375
rfingers 7.12502
rthumb -2.91405 -27.9661
lclavicle -3.79679e-014 1.35174e-014
lhumerus -42.1939 -18.0215 101.925
lradius 92.1441
lwrist 11.3198
lhand -26.0898 -12.2697
lfingers 7.12502
lthumb 0.458996 17.7095
rfemur -29.6537 -8.93233 15.9838
rtibia 87.2948
rfoot 0.272667 -6.13208
rtoes -27.4406
lfemur -45.6599 1.93429 -28.2855
ltibia 63.8092
lfoot -31.3976 -6.23205
ltoes 7.59976
12
root -0.364644 15.6807 36.129 -160.484 -0.381819 -184.773
lowerback 18.1221 -1.78584 -1.38441
upperback -0.0155792 -2.76619 0.375491
thorax -10.1241 -1.29188 1.93786
lowerneck -16.1109 -1.08208 0.46059
upperneck -3.99569 -0.766625 2.13693
head 1.45864 0.0135815 0.564936
rclavicle -2.14687e-014 1.11319e-014
rhumerus -45.9597 -3.99988 -88.7804
rradius 68.5857
rwrist -6.70964
rhand -30.0796 1.82355
rfingers 7.12502
rthumb -3.39437 -28.1292
lclavicle -2.14687e-014 1.11319e-014
lhumerus -38.5835 -18.8039 101.787
lradius 92.9605
lwrist 11.3776
lhand -26.0296 -12.0335
lfingers 7.12502
lthumb 0.51718 17.9456
rfemur -34.1545 -10.1785 14.8064
rtibia 90.8155
rfoot -2.1419 -6.70626
rtoes -27.0502
lfemur -42.8017 0.82428 -29.2761
ltibia 62.9474
lfoot -32.813 -5.53597
ltoes 6.89762
